<svg width="155" height="33" viewBox="0 0 155 33" fill="none" xmlns="http://www.w3.org/2000/svg">
<path d="M49.7131 24.5H49.0966C49.0601 24.3227 48.9963 24.1669 48.9052 24.0327C48.8157 23.8984 48.7063 23.7857 48.5771 23.6946C48.4495 23.6018 48.3078 23.5322 48.152 23.4858C47.9962 23.4394 47.8338 23.4162 47.6648 23.4162C47.3565 23.4162 47.0773 23.4941 46.8271 23.6499C46.5785 23.8056 46.3804 24.0352 46.233 24.3384C46.0871 24.6417 46.0142 25.0137 46.0142 25.4545C46.0142 25.8954 46.0871 26.2674 46.233 26.5707C46.3804 26.8739 46.5785 27.1035 46.8271 27.2592C47.0773 27.415 47.3565 27.4929 47.6648 27.4929C47.8338 27.4929 47.9962 27.4697 48.152 27.4233C48.3078 27.3769 48.4495 27.3081 48.5771 27.217C48.7063 27.1242 48.8157 27.0107 48.9052 26.8764C48.9963 26.7405 49.0601 26.5848 49.0966 26.4091H49.7131C49.6667 26.6693 49.5821 26.9021 49.4595 27.1076C49.3369 27.3131 49.1844 27.4879 49.0021 27.6321C48.8198 27.7746 48.6152 27.8832 48.3881 27.9577C48.1628 28.0323 47.9216 28.0696 47.6648 28.0696C47.2306 28.0696 46.8445 27.9635 46.5064 27.7514C46.1683 27.5393 45.9023 27.2377 45.7085 26.8466C45.5146 26.4555 45.4176 25.9915 45.4176 25.4545C45.4176 24.9176 45.5146 24.4536 45.7085 24.0625C45.9023 23.6714 46.1683 23.3698 46.5064 23.1577C46.8445 22.9455 47.2306 22.8395 47.6648 22.8395C47.9216 22.8395 48.1628 22.8768 48.3881 22.9513C48.6152 23.0259 48.8198 23.1353 49.0021 23.2795C49.1844 23.422 49.3369 23.596 49.4595 23.8015C49.5821 24.0053 49.6667 24.2382 49.7131 24.5ZM51.2164 22.9091V28H50.6297V22.9091H51.2164ZM53.842 28.0795C53.4973 28.0795 53.1948 27.9975 52.9347 27.8335C52.6761 27.6694 52.474 27.4399 52.3281 27.1449C52.1839 26.8499 52.1119 26.5052 52.1119 26.1108C52.1119 25.7131 52.1839 25.3659 52.3281 25.0692C52.474 24.7726 52.6761 24.5423 52.9347 24.3782C53.1948 24.2141 53.4973 24.1321 53.842 24.1321C54.1867 24.1321 54.4883 24.2141 54.7468 24.3782C55.007 24.5423 55.2092 24.7726 55.3533 25.0692C55.4992 25.3659 55.5721 25.7131 55.5721 26.1108C55.5721 26.5052 55.4992 26.8499 55.3533 27.1449C55.2092 27.4399 55.007 27.6694 54.7468 27.8335C54.4883 27.9975 54.1867 28.0795 53.842 28.0795ZM53.842 27.5526C54.1038 27.5526 54.3192 27.4854 54.4883 27.3512C54.6573 27.217 54.7824 27.0405 54.8636 26.8217C54.9448 26.603 54.9854 26.366 54.9854 26.1108C54.9854 25.8556 54.9448 25.6178 54.8636 25.3974C54.7824 25.177 54.6573 24.9988 54.4883 24.8629C54.3192 24.727 54.1038 24.6591 53.842 24.6591C53.5801 24.6591 53.3647 24.727 53.1957 24.8629C53.0266 24.9988 52.9015 25.177 52.8203 25.3974C52.7391 25.6178 52.6985 25.8556 52.6985 26.1108C52.6985 26.366 52.7391 26.603 52.8203 26.8217C52.9015 27.0405 53.0266 27.217 53.1957 27.3512C53.3647 27.4854 53.5801 27.5526 53.842 27.5526ZM58.8738 26.4389V24.1818H59.4605V28H58.8738V27.3537H58.8341C58.7446 27.5476 58.6054 27.7125 58.4165 27.8484C58.2275 27.9826 57.9889 28.0497 57.7006 28.0497C57.4619 28.0497 57.2498 27.9975 57.0642 27.8931C56.8786 27.7871 56.7327 27.628 56.6267 27.4158C56.5206 27.2021 56.4676 26.9328 56.4676 26.608V24.1818H57.0542V26.5682C57.0542 26.8466 57.1321 27.0687 57.2879 27.2344C57.4453 27.4001 57.6459 27.483 57.8895 27.483C58.0353 27.483 58.1836 27.4457 58.3344 27.3711C58.4869 27.2965 58.6145 27.1822 58.7172 27.0281C58.8216 26.8739 58.8738 26.6776 58.8738 26.4389ZM61.9767 28.0795C61.6586 28.0795 61.3777 27.9992 61.1341 27.8384C60.8904 27.676 60.6999 27.4473 60.5623 27.1523C60.4248 26.8557 60.356 26.5052 60.356 26.1009C60.356 25.6998 60.4248 25.3518 60.5623 25.0568C60.6999 24.7618 60.8913 24.534 61.1365 24.3732C61.3818 24.2125 61.6652 24.1321 61.9867 24.1321C62.2353 24.1321 62.4316 24.1735 62.5758 24.2564C62.7217 24.3376 62.8327 24.4304 62.9089 24.5348C62.9868 24.6375 63.0473 24.7221 63.0904 24.7884H63.1401V22.9091H63.7267V28H63.16V27.4134H63.0904C63.0473 27.483 62.986 27.5708 62.9064 27.6768C62.8269 27.7812 62.7134 27.8749 62.5659 27.9577C62.4184 28.0389 62.222 28.0795 61.9767 28.0795ZM62.0563 27.5526C62.2916 27.5526 62.4905 27.4912 62.6529 27.3686C62.8153 27.2443 62.9387 27.0728 63.0233 26.854C63.1078 26.6336 63.15 26.3793 63.15 26.0909C63.15 25.8059 63.1086 25.5565 63.0257 25.3427C62.9429 25.1272 62.8203 24.9599 62.6578 24.8406C62.4954 24.7196 62.2949 24.6591 62.0563 24.6591C61.8077 24.6591 61.6006 24.7229 61.4348 24.8505C61.2708 24.9764 61.1473 25.148 61.0645 25.3651C60.9833 25.5805 60.9426 25.8224 60.9426 26.0909C60.9426 26.3627 60.9841 26.6096 61.0669 26.8317C61.1515 27.0521 61.2757 27.2277 61.4398 27.3587C61.6055 27.4879 61.811 27.5526 62.0563 27.5526ZM68.2931 28.0696C67.9584 28.0696 67.67 28.0083 67.4281 27.8857C67.1861 27.763 66.9997 27.5948 66.8688 27.381C66.7379 27.1673 66.6724 26.9228 66.6724 26.6477C66.6724 26.4356 66.7172 26.2475 66.8066 26.0835C66.8978 25.9177 67.0229 25.7644 67.182 25.6236C67.3427 25.4811 67.5275 25.3385 67.7363 25.196L68.4721 24.6491C68.6163 24.5547 68.7315 24.4536 68.8176 24.3459C68.9055 24.2382 68.9494 24.0973 68.9494 23.9233C68.9494 23.794 68.8922 23.6689 68.7779 23.5479C68.6652 23.427 68.5169 23.3665 68.3329 23.3665C68.2037 23.3665 68.0893 23.3996 67.9899 23.4659C67.8921 23.5305 67.815 23.6134 67.7587 23.7145C67.704 23.8139 67.6767 23.9167 67.6767 24.0227C67.6767 24.142 67.709 24.263 67.7736 24.3857C67.8399 24.5066 67.9236 24.6309 68.0247 24.7585C68.1274 24.8845 68.2335 25.0137 68.3429 25.1463L70.6795 28H69.9735L68.0446 25.6733C67.8656 25.4579 67.7032 25.2623 67.5574 25.0866C67.4115 24.911 67.2955 24.7378 67.2093 24.5671C67.1232 24.3964 67.0801 24.2116 67.0801 24.0128C67.0801 23.7841 67.1306 23.5836 67.2317 23.4112C67.3345 23.2372 67.4778 23.1022 67.6618 23.006C67.8474 22.9083 68.0645 22.8594 68.313 22.8594C68.5682 22.8594 68.7878 22.9091 68.9718 23.0085C69.1557 23.1063 69.2974 23.2364 69.3968 23.3988C69.4963 23.5595 69.546 23.7344 69.546 23.9233C69.546 24.1669 69.4855 24.3782 69.3645 24.5572C69.2435 24.7362 69.0787 24.9027 68.8699 25.0568L67.8556 25.8125C67.627 25.9815 67.472 26.1456 67.3908 26.3047C67.3096 26.4638 67.269 26.5781 67.269 26.6477C67.269 26.8068 67.3104 26.9551 67.3933 27.0927C67.4761 27.2302 67.593 27.3413 67.7438 27.4258C67.8946 27.5103 68.0711 27.5526 68.2733 27.5526C68.4655 27.5526 68.6528 27.512 68.835 27.4308C69.0173 27.3479 69.1822 27.2286 69.3297 27.0728C69.4789 26.917 69.5965 26.7298 69.6827 26.511C69.7705 26.2923 69.8145 26.0462 69.8145 25.7727H70.3812C70.3812 26.1108 70.3423 26.3867 70.2644 26.6005C70.1865 26.8143 70.0987 26.9817 70.0009 27.1026C69.9031 27.2236 69.8244 27.3139 69.7647 27.3736C69.7449 27.3984 69.7266 27.4233 69.71 27.4482C69.6935 27.473 69.6752 27.4979 69.6554 27.5227C69.4913 27.7067 69.2842 27.8442 69.0339 27.9354C68.7837 28.0249 68.5368 28.0696 68.2931 28.0696ZM73.3772 28V22.9091H73.9937V25.1761H76.7082V22.9091H77.3247V28H76.7082V25.723H73.9937V28H73.3772ZM80.0305 28.0795C79.6858 28.0795 79.3833 27.9975 79.1231 27.8335C78.8646 27.6694 78.6624 27.4399 78.5166 27.1449C78.3724 26.8499 78.3003 26.5052 78.3003 26.1108C78.3003 25.7131 78.3724 25.3659 78.5166 25.0692C78.6624 24.7726 78.8646 24.5423 79.1231 24.3782C79.3833 24.2141 79.6858 24.1321 80.0305 24.1321C80.3751 24.1321 80.6768 24.2141 80.9353 24.3782C81.1955 24.5423 81.3976 24.7726 81.5418 25.0692C81.6876 25.3659 81.7606 25.7131 81.7606 26.1108C81.7606 26.5052 81.6876 26.8499 81.5418 27.1449C81.3976 27.4399 81.1955 27.6694 80.9353 27.8335C80.6768 27.9975 80.3751 28.0795 80.0305 28.0795ZM80.0305 27.5526C80.2923 27.5526 80.5077 27.4854 80.6768 27.3512C80.8458 27.217 80.9709 27.0405 81.0521 26.8217C81.1333 26.603 81.1739 26.366 81.1739 26.1108C81.1739 25.8556 81.1333 25.6178 81.0521 25.3974C80.9709 25.177 80.8458 24.9988 80.6768 24.8629C80.5077 24.727 80.2923 24.6591 80.0305 24.6591C79.7686 24.6591 79.5532 24.727 79.3841 24.8629C79.2151 24.9988 79.09 25.177 79.0088 25.3974C78.9276 25.6178 78.887 25.8556 78.887 26.1108C78.887 26.366 78.9276 26.603 79.0088 26.8217C79.09 27.0405 79.2151 27.217 79.3841 27.3512C79.5532 27.4854 79.7686 27.5526 80.0305 27.5526ZM85.3606 25.0369L84.8336 25.1861C84.8005 25.0982 84.7516 25.0129 84.687 24.93C84.624 24.8455 84.5378 24.7759 84.4284 24.7212C84.3191 24.6665 84.179 24.6392 84.0083 24.6392C83.7747 24.6392 83.58 24.6931 83.4242 24.8008C83.2701 24.9068 83.193 25.0419 83.193 25.206C83.193 25.3518 83.246 25.467 83.3521 25.5515C83.4582 25.636 83.6239 25.7064 83.8493 25.7628L84.416 25.902C84.7574 25.9848 85.0118 26.1116 85.1792 26.2823C85.3465 26.4513 85.4302 26.6693 85.4302 26.9361C85.4302 27.1548 85.3672 27.3504 85.2413 27.5227C85.117 27.6951 84.943 27.831 84.7193 27.9304C84.4956 28.0298 84.2354 28.0795 83.9387 28.0795C83.5493 28.0795 83.227 27.995 82.9718 27.826C82.7166 27.657 82.555 27.41 82.487 27.0852L83.0439 26.946C83.0969 27.1515 83.1971 27.3056 83.3446 27.4084C83.4938 27.5111 83.6885 27.5625 83.9288 27.5625C84.2022 27.5625 84.4193 27.5045 84.5801 27.3885C84.7425 27.2708 84.8237 27.13 84.8237 26.9659C84.8237 26.8333 84.7773 26.7223 84.6845 26.6328C84.5917 26.5417 84.4492 26.4737 84.2569 26.429L83.6206 26.2798C83.2709 26.197 83.014 26.0685 82.85 25.8945C82.6876 25.7189 82.6064 25.4993 82.6064 25.2358C82.6064 25.0204 82.6668 24.8298 82.7878 24.6641C82.9105 24.4983 83.077 24.3683 83.2875 24.2738C83.4996 24.1793 83.7399 24.1321 84.0083 24.1321C84.3862 24.1321 84.6828 24.215 84.8983 24.3807C85.1154 24.5464 85.2695 24.7652 85.3606 25.0369ZM87.9738 24.1818V24.679H85.9951V24.1818H87.9738ZM86.5718 23.267H87.1585V26.9062C87.1585 27.072 87.1825 27.1963 87.2306 27.2791C87.2803 27.3603 87.3432 27.415 87.4195 27.4432C87.4974 27.4697 87.5794 27.483 87.6656 27.483C87.7302 27.483 87.7832 27.4796 87.8247 27.473C87.8661 27.4647 87.8992 27.4581 87.9241 27.4531L88.0434 27.9801C88.0036 27.995 87.9481 28.0099 87.8769 28.0249C87.8056 28.0414 87.7153 28.0497 87.6059 28.0497C87.4402 28.0497 87.2778 28.0141 87.1187 27.9428C86.9613 27.8716 86.8303 27.763 86.7259 27.6172C86.6232 27.4714 86.5718 27.2874 86.5718 27.0653V23.267ZM88.8563 28V24.1818H89.4429V28H88.8563ZM89.1546 23.5455C89.0402 23.5455 88.9416 23.5065 88.8588 23.4286C88.7776 23.3507 88.7369 23.2571 88.7369 23.1477C88.7369 23.0384 88.7776 22.9447 88.8588 22.8668C88.9416 22.7889 89.0402 22.75 89.1546 22.75C89.2689 22.75 89.3667 22.7889 89.4479 22.8668C89.5307 22.9447 89.5722 23.0384 89.5722 23.1477C89.5722 23.2571 89.5307 23.3507 89.4479 23.4286C89.3667 23.5065 89.2689 23.5455 89.1546 23.5455ZM91.104 25.7031V28H90.5174V24.1818H91.0842V24.7784H91.1339C91.2234 24.5845 91.3593 24.4287 91.5415 24.3111C91.7238 24.1918 91.9592 24.1321 92.2475 24.1321C92.506 24.1321 92.7322 24.1851 92.9261 24.2912C93.12 24.3956 93.2708 24.5547 93.3786 24.7685C93.4863 24.9806 93.5401 25.2491 93.5401 25.5739V28H92.9535V25.6136C92.9535 25.3137 92.8756 25.08 92.7198 24.9126C92.564 24.7436 92.3503 24.6591 92.0785 24.6591C91.8912 24.6591 91.7238 24.6997 91.5763 24.7809C91.4305 24.8621 91.3153 24.9806 91.2308 25.1364C91.1463 25.2921 91.104 25.4811 91.104 25.7031ZM96.1533 29.5114C95.8699 29.5114 95.6263 29.4749 95.4225 29.402C95.2187 29.3307 95.0488 29.2363 94.9129 29.1186C94.7787 29.0026 94.6718 28.8783 94.5922 28.7457L95.0596 28.4176C95.1126 28.4872 95.1797 28.5668 95.2609 28.6562C95.3421 28.7474 95.4532 28.8261 95.594 28.8924C95.7365 28.9603 95.923 28.9943 96.1533 28.9943C96.4616 28.9943 96.7159 28.9197 96.9165 28.7706C97.117 28.6214 97.2172 28.3878 97.2172 28.0696V27.294H97.1675C97.1244 27.3636 97.0631 27.4498 96.9836 27.5526C96.9057 27.6536 96.793 27.744 96.6455 27.8235C96.4997 27.9014 96.3025 27.9403 96.0539 27.9403C95.7456 27.9403 95.4689 27.8674 95.2236 27.7216C94.98 27.5758 94.787 27.3636 94.6444 27.0852C94.5036 26.8068 94.4331 26.4687 94.4331 26.071C94.4331 25.6799 94.5019 25.3394 94.6395 25.0494C94.777 24.7577 94.9684 24.5323 95.2137 24.3732C95.459 24.2125 95.7423 24.1321 96.0638 24.1321C96.3124 24.1321 96.5096 24.1735 96.6555 24.2564C96.8029 24.3376 96.9156 24.4304 96.9935 24.5348C97.0731 24.6375 97.1344 24.7221 97.1775 24.7884H97.2371V24.1818H97.8039V28.1094C97.8039 28.4375 97.7293 28.7043 97.5802 28.9098C97.4327 29.117 97.2338 29.2686 96.9836 29.3647C96.735 29.4625 96.4582 29.5114 96.1533 29.5114ZM96.1334 27.4134C96.3688 27.4134 96.5676 27.3595 96.73 27.2518C96.8924 27.1441 97.0159 26.9891 97.1004 26.7869C97.1849 26.5848 97.2272 26.3428 97.2272 26.0611C97.2272 25.786 97.1858 25.5432 97.1029 25.3327C97.02 25.1223 96.8974 24.9574 96.735 24.8381C96.5726 24.7187 96.3721 24.6591 96.1334 24.6591C95.8849 24.6591 95.6777 24.7221 95.512 24.848C95.3479 24.974 95.2245 25.143 95.1416 25.3551C95.0604 25.5672 95.0198 25.8026 95.0198 26.0611C95.0198 26.3262 95.0612 26.5607 95.1441 26.7646C95.2286 26.9667 95.3529 27.1258 95.517 27.2418C95.6827 27.3562 95.8882 27.4134 96.1334 27.4134ZM103.71 24.1818C103.68 23.9299 103.559 23.7344 103.347 23.5952C103.135 23.456 102.875 23.3864 102.567 23.3864C102.341 23.3864 102.144 23.4228 101.975 23.4957C101.808 23.5687 101.677 23.6689 101.582 23.7965C101.489 23.9241 101.443 24.0691 101.443 24.2315C101.443 24.3674 101.475 24.4843 101.54 24.582C101.606 24.6781 101.691 24.7585 101.794 24.8232C101.896 24.8861 102.004 24.9383 102.117 24.9798C102.229 25.0195 102.333 25.0518 102.427 25.0767L102.945 25.2159C103.077 25.2507 103.225 25.2988 103.387 25.3601C103.551 25.4214 103.708 25.5051 103.857 25.6112C104.008 25.7156 104.132 25.8498 104.23 26.0138C104.327 26.1779 104.376 26.3793 104.376 26.6179C104.376 26.893 104.304 27.1416 104.16 27.3636C104.018 27.5857 103.809 27.7622 103.534 27.8931C103.26 28.024 102.928 28.0895 102.537 28.0895C102.172 28.0895 101.857 28.0307 101.59 27.913C101.325 27.7953 101.116 27.6313 100.963 27.4208C100.813 27.2103 100.727 26.9659 100.707 26.6875H101.344C101.36 26.8797 101.425 27.0388 101.538 27.1648C101.652 27.2891 101.796 27.3819 101.97 27.4432C102.146 27.5028 102.335 27.5327 102.537 27.5327C102.772 27.5327 102.983 27.4946 103.171 27.4183C103.358 27.3404 103.506 27.2327 103.616 27.0952C103.725 26.956 103.78 26.7936 103.78 26.608C103.78 26.4389 103.733 26.3014 103.638 26.1953C103.544 26.0893 103.419 26.0031 103.265 25.9368C103.111 25.8705 102.945 25.8125 102.766 25.7628L102.139 25.5838C101.741 25.4695 101.427 25.3062 101.195 25.0941C100.963 24.882 100.847 24.6044 100.847 24.2614C100.847 23.9763 100.924 23.7277 101.078 23.5156C101.233 23.3018 101.442 23.1361 101.704 23.0185C101.968 22.8991 102.262 22.8395 102.587 22.8395C102.915 22.8395 103.206 22.8983 103.462 23.016C103.717 23.132 103.919 23.2911 104.068 23.4933C104.219 23.6954 104.298 23.925 104.307 24.1818H103.71ZM106.911 28.0795C106.543 28.0795 106.226 27.9983 105.959 27.8359C105.694 27.6719 105.489 27.4432 105.345 27.1499C105.203 26.8549 105.131 26.5118 105.131 26.1207C105.131 25.7296 105.203 25.3849 105.345 25.0866C105.489 24.7867 105.69 24.553 105.947 24.3857C106.205 24.2166 106.507 24.1321 106.852 24.1321C107.05 24.1321 107.247 24.1652 107.441 24.2315C107.635 24.2978 107.811 24.4055 107.97 24.5547C108.129 24.7022 108.256 24.8977 108.35 25.1413C108.445 25.3849 108.492 25.6849 108.492 26.0412V26.2898H105.549V25.7827H107.896C107.896 25.5672 107.853 25.375 107.766 25.206C107.682 25.0369 107.561 24.9035 107.403 24.8058C107.248 24.708 107.064 24.6591 106.852 24.6591C106.618 24.6591 106.416 24.7171 106.245 24.8331C106.076 24.9474 105.946 25.0966 105.855 25.2805C105.764 25.4645 105.718 25.6617 105.718 25.8722V26.2102C105.718 26.4986 105.768 26.743 105.867 26.9435C105.968 27.1424 106.108 27.294 106.287 27.3984C106.466 27.5012 106.674 27.5526 106.911 27.5526C107.065 27.5526 107.205 27.531 107.329 27.4879C107.455 27.4432 107.563 27.3769 107.654 27.2891C107.746 27.1996 107.816 27.0885 107.866 26.956L108.433 27.1151C108.373 27.3073 108.273 27.4763 108.132 27.6222C107.991 27.7663 107.817 27.879 107.61 27.9602C107.403 28.0398 107.17 28.0795 106.911 28.0795ZM109.385 28V24.1818H109.951V24.7585H109.991C110.061 24.5696 110.187 24.4163 110.369 24.2987C110.551 24.181 110.757 24.1222 110.985 24.1222C111.029 24.1222 111.082 24.123 111.147 24.1246C111.212 24.1263 111.261 24.1288 111.294 24.1321V24.7287C111.274 24.7237 111.228 24.7163 111.157 24.7063C111.087 24.6947 111.014 24.6889 110.936 24.6889C110.75 24.6889 110.584 24.7279 110.439 24.8058C110.294 24.882 110.18 24.988 110.096 25.1239C110.013 25.2582 109.971 25.4115 109.971 25.5838V28H109.385ZM115.227 24.1818L113.816 28H113.219L111.807 24.1818H112.443L113.497 27.2244H113.537L114.591 24.1818H115.227ZM116.002 28V24.1818H116.588V28H116.002ZM116.3 23.5455C116.186 23.5455 116.087 23.5065 116.004 23.4286C115.923 23.3507 115.882 23.2571 115.882 23.1477C115.882 23.0384 115.923 22.9447 116.004 22.8668C116.087 22.7889 116.186 22.75 116.3 22.75C116.414 22.75 116.512 22.7889 116.593 22.8668C116.676 22.9447 116.718 23.0384 116.718 23.1477C116.718 23.2571 116.676 23.3507 116.593 23.4286C116.512 23.5065 116.414 23.5455 116.3 23.5455ZM119.214 28.0795C118.856 28.0795 118.548 27.995 118.289 27.826C118.031 27.657 117.832 27.4241 117.693 27.1275C117.554 26.8308 117.484 26.492 117.484 26.1108C117.484 25.723 117.555 25.3808 117.698 25.0842C117.842 24.7859 118.042 24.553 118.299 24.3857C118.558 24.2166 118.859 24.1321 119.204 24.1321C119.473 24.1321 119.715 24.1818 119.93 24.2812C120.145 24.3807 120.322 24.5199 120.459 24.6989C120.597 24.8778 120.682 25.0866 120.715 25.3253H120.129C120.084 25.1513 119.985 24.9972 119.831 24.8629C119.678 24.727 119.473 24.6591 119.214 24.6591C118.985 24.6591 118.785 24.7187 118.612 24.8381C118.442 24.9557 118.308 25.1223 118.212 25.3377C118.118 25.5515 118.071 25.8026 118.071 26.0909C118.071 26.3859 118.117 26.6428 118.21 26.8615C118.304 27.0803 118.437 27.2501 118.608 27.3711C118.78 27.4921 118.982 27.5526 119.214 27.5526C119.367 27.5526 119.505 27.526 119.629 27.473C119.753 27.42 119.859 27.3438 119.945 27.2443C120.031 27.1449 120.092 27.0256 120.129 26.8864H120.715C120.682 27.1117 120.6 27.3147 120.469 27.4954C120.34 27.6744 120.169 27.8169 119.955 27.9229C119.743 28.0273 119.496 28.0795 119.214 28.0795ZM123.174 28.0795C122.806 28.0795 122.489 27.9983 122.222 27.8359C121.957 27.6719 121.752 27.4432 121.608 27.1499C121.465 26.8549 121.394 26.5118 121.394 26.1207C121.394 25.7296 121.465 25.3849 121.608 25.0866C121.752 24.7867 121.953 24.553 122.209 24.3857C122.468 24.2166 122.77 24.1321 123.114 24.1321C123.313 24.1321 123.509 24.1652 123.703 24.2315C123.897 24.2978 124.074 24.4055 124.233 24.5547C124.392 24.7022 124.519 24.8977 124.613 25.1413C124.708 25.3849 124.755 25.6849 124.755 26.0412V26.2898H121.812V25.7827H124.158C124.158 25.5672 124.115 25.375 124.029 25.206C123.945 25.0369 123.824 24.9035 123.666 24.8058C123.51 24.708 123.326 24.6591 123.114 24.6591C122.881 24.6591 122.678 24.7171 122.508 24.8331C122.339 24.9474 122.209 25.0966 122.117 25.2805C122.026 25.4645 121.981 25.6617 121.981 25.8722V26.2102C121.981 26.4986 122.03 26.743 122.13 26.9435C122.231 27.1424 122.371 27.294 122.55 27.3984C122.729 27.5012 122.937 27.5526 123.174 27.5526C123.328 27.5526 123.467 27.531 123.592 27.4879C123.717 27.4432 123.826 27.3769 123.917 27.2891C124.008 27.1996 124.079 27.0885 124.128 26.956L124.695 27.1151C124.636 27.3073 124.535 27.4763 124.394 27.6222C124.254 27.7663 124.08 27.879 123.872 27.9602C123.665 28.0398 123.432 28.0795 123.174 28.0795ZM127.696 28V22.9091H129.416C129.815 22.9091 130.142 22.9812 130.395 23.1254C130.65 23.2679 130.839 23.4609 130.962 23.7045C131.085 23.9482 131.146 24.2199 131.146 24.5199C131.146 24.8198 131.085 25.0924 130.962 25.3377C130.841 25.583 130.654 25.7785 130.4 25.9244C130.147 26.0685 129.822 26.1406 129.426 26.1406H128.193V25.5938H129.406C129.679 25.5938 129.899 25.5465 130.065 25.4521C130.23 25.3576 130.35 25.23 130.425 25.0692C130.501 24.9068 130.539 24.7237 130.539 24.5199C130.539 24.3161 130.501 24.1338 130.425 23.973C130.35 23.8123 130.229 23.6863 130.062 23.5952C129.895 23.5024 129.673 23.456 129.396 23.456H128.312V28H127.696ZM132.059 28V24.1818H132.626V24.7585H132.666C132.736 24.5696 132.861 24.4163 133.044 24.2987C133.226 24.181 133.432 24.1222 133.66 24.1222C133.703 24.1222 133.757 24.123 133.822 24.1246C133.886 24.1263 133.935 24.1288 133.968 24.1321V24.7287C133.949 24.7237 133.903 24.7163 133.832 24.7063C133.762 24.6947 133.688 24.6889 133.611 24.6889C133.425 24.6889 133.259 24.7279 133.113 24.8058C132.969 24.882 132.855 24.988 132.77 25.1239C132.687 25.2582 132.646 25.4115 132.646 25.5838V28H132.059ZM136.099 28.0795C135.754 28.0795 135.452 27.9975 135.191 27.8335C134.933 27.6694 134.731 27.4399 134.585 27.1449C134.441 26.8499 134.369 26.5052 134.369 26.1108C134.369 25.7131 134.441 25.3659 134.585 25.0692C134.731 24.7726 134.933 24.5423 135.191 24.3782C135.452 24.2141 135.754 24.1321 136.099 24.1321C136.444 24.1321 136.745 24.2141 137.004 24.3782C137.264 24.5423 137.466 24.7726 137.61 25.0692C137.756 25.3659 137.829 25.7131 137.829 26.1108C137.829 26.5052 137.756 26.8499 137.61 27.1449C137.466 27.4399 137.264 27.6694 137.004 27.8335C136.745 27.9975 136.444 28.0795 136.099 28.0795ZM136.099 27.5526C136.361 27.5526 136.576 27.4854 136.745 27.3512C136.914 27.217 137.039 27.0405 137.12 26.8217C137.202 26.603 137.242 26.366 137.242 26.1108C137.242 25.8556 137.202 25.6178 137.12 25.3974C137.039 25.177 136.914 24.9988 136.745 24.8629C136.576 24.727 136.361 24.6591 136.099 24.6591C135.837 24.6591 135.622 24.727 135.453 24.8629C135.283 24.9988 135.158 25.177 135.077 25.3974C134.996 25.6178 134.955 25.8556 134.955 26.1108C134.955 26.366 134.996 26.603 135.077 26.8217C135.158 27.0405 135.283 27.217 135.453 27.3512C135.622 27.4854 135.837 27.5526 136.099 27.5526ZM141.71 24.1818L140.298 28H139.701L138.289 24.1818H138.926L139.98 27.2244H140.02L141.074 24.1818H141.71ZM142.484 28V24.1818H143.071V28H142.484ZM142.782 23.5455C142.668 23.5455 142.57 23.5065 142.487 23.4286C142.405 23.3507 142.365 23.2571 142.365 23.1477C142.365 23.0384 142.405 22.9447 142.487 22.8668C142.57 22.7889 142.668 22.75 142.782 22.75C142.897 22.75 142.995 22.7889 143.076 22.8668C143.159 22.9447 143.2 23.0384 143.2 23.1477C143.2 23.2571 143.159 23.3507 143.076 23.4286C142.995 23.5065 142.897 23.5455 142.782 23.5455ZM145.587 28.0795C145.269 28.0795 144.988 27.9992 144.744 27.8384C144.501 27.676 144.31 27.4473 144.173 27.1523C144.035 26.8557 143.966 26.5052 143.966 26.1009C143.966 25.6998 144.035 25.3518 144.173 25.0568C144.31 24.7618 144.502 24.534 144.747 24.3732C144.992 24.2125 145.276 24.1321 145.597 24.1321C145.846 24.1321 146.042 24.1735 146.186 24.2564C146.332 24.3376 146.443 24.4304 146.519 24.5348C146.597 24.6375 146.658 24.7221 146.701 24.7884H146.75V22.9091H147.337V28H146.77V27.4134H146.701C146.658 27.483 146.596 27.5708 146.517 27.6768C146.437 27.7812 146.324 27.8749 146.176 27.9577C146.029 28.0389 145.832 28.0795 145.587 28.0795ZM145.667 27.5526C145.902 27.5526 146.101 27.4912 146.263 27.3686C146.426 27.2443 146.549 27.0728 146.634 26.854C146.718 26.6336 146.76 26.3793 146.76 26.0909C146.76 25.8059 146.719 25.5565 146.636 25.3427C146.553 25.1272 146.431 24.9599 146.268 24.8406C146.106 24.7196 145.905 24.6591 145.667 24.6591C145.418 24.6591 145.211 24.7229 145.045 24.8505C144.881 24.9764 144.758 25.148 144.675 25.3651C144.594 25.5805 144.553 25.8224 144.553 26.0909C144.553 26.3627 144.594 26.6096 144.677 26.8317C144.762 27.0521 144.886 27.2277 145.05 27.3587C145.216 27.4879 145.421 27.5526 145.667 27.5526ZM150.094 28.0795C149.726 28.0795 149.409 27.9983 149.142 27.8359C148.877 27.6719 148.672 27.4432 148.528 27.1499C148.385 26.8549 148.314 26.5118 148.314 26.1207C148.314 25.7296 148.385 25.3849 148.528 25.0866C148.672 24.7867 148.872 24.553 149.129 24.3857C149.388 24.2166 149.689 24.1321 150.034 24.1321C150.233 24.1321 150.429 24.1652 150.623 24.2315C150.817 24.2978 150.994 24.4055 151.153 24.5547C151.312 24.7022 151.439 24.8977 151.533 25.1413C151.628 25.3849 151.675 25.6849 151.675 26.0412V26.2898H148.732V25.7827H151.078C151.078 25.5672 151.035 25.375 150.949 25.206C150.864 25.0369 150.743 24.9035 150.586 24.8058C150.43 24.708 150.246 24.6591 150.034 24.6591C149.801 24.6591 149.598 24.7171 149.428 24.8331C149.259 24.9474 149.129 25.0966 149.037 25.2805C148.946 25.4645 148.901 25.6617 148.901 25.8722V26.2102C148.901 26.4986 148.95 26.743 149.05 26.9435C149.151 27.1424 149.291 27.294 149.47 27.3984C149.649 27.5012 149.857 27.5526 150.094 27.5526C150.248 27.5526 150.387 27.531 150.511 27.4879C150.637 27.4432 150.746 27.3769 150.837 27.2891C150.928 27.1996 150.999 27.0885 151.048 26.956L151.615 27.1151C151.555 27.3073 151.455 27.4763 151.314 27.6222C151.174 27.7663 150.999 27.879 150.792 27.9602C150.585 28.0398 150.352 28.0795 150.094 28.0795ZM152.567 28V24.1818H153.134V24.7585H153.174C153.243 24.5696 153.369 24.4163 153.552 24.2987C153.734 24.181 153.939 24.1222 154.168 24.1222C154.211 24.1222 154.265 24.123 154.33 24.1246C154.394 24.1263 154.443 24.1288 154.476 24.1321V24.7287C154.456 24.7237 154.411 24.7163 154.34 24.7063C154.27 24.6947 154.196 24.6889 154.118 24.6889C153.933 24.6889 153.767 24.7279 153.621 24.8058C153.477 24.882 153.363 24.988 153.278 25.1239C153.195 25.2582 153.154 25.4115 153.154 25.5838V28H152.567Z" fill="#828E95"/>
<path d="M48.94 21H45.995C45.7543 21 45.577 20.9493 45.463 20.848C45.3617 20.734 45.311 20.5567 45.311 20.316V8.004C45.311 7.76333 45.3617 7.59233 45.463 7.491C45.577 7.377 45.7543 7.32 45.995 7.32H48.94C49.1807 7.32 49.3517 7.377 49.453 7.491C49.567 7.59233 49.624 7.76333 49.624 8.004V12.127H52.797V8.004C52.797 7.76333 52.8477 7.59233 52.949 7.491C53.063 7.377 53.2403 7.32 53.481 7.32H56.426C56.6667 7.32 56.8377 7.377 56.939 7.491C57.053 7.59233 57.11 7.76333 57.11 8.004V20.316C57.11 20.5567 57.053 20.734 56.939 20.848C56.8377 20.9493 56.6667 21 56.426 21H53.481C53.2403 21 53.063 20.9493 52.949 20.848C52.8477 20.734 52.797 20.5567 52.797 20.316V16.098H49.624V20.316C49.624 20.5567 49.567 20.734 49.453 20.848C49.3517 20.9493 49.1807 21 48.94 21ZM60.108 21C59.8673 21 59.69 20.9493 59.576 20.848C59.4747 20.734 59.424 20.5567 59.424 20.316V18.055C59.424 17.8143 59.4747 17.6433 59.576 17.542C59.69 17.428 59.8673 17.371 60.108 17.371H61.989V10.987H60.108C59.8673 10.987 59.69 10.9363 59.576 10.835C59.4747 10.721 59.424 10.5437 59.424 10.303V8.004C59.424 7.76333 59.4747 7.59233 59.576 7.491C59.69 7.377 59.8673 7.32 60.108 7.32H68.202C68.4427 7.32 68.6137 7.377 68.715 7.491C68.829 7.59233 68.886 7.76333 68.886 8.004V10.303C68.886 10.5437 68.829 10.721 68.715 10.835C68.6137 10.9363 68.4427 10.987 68.202 10.987H66.359V17.371H68.202C68.4427 17.371 68.6137 17.428 68.715 17.542C68.829 17.6433 68.886 17.8143 68.886 18.055V20.316C68.886 20.5567 68.829 20.734 68.715 20.848C68.6137 20.9493 68.4427 21 68.202 21H60.108ZM78.3189 21H71.9159C71.6752 21 71.4979 20.9493 71.3839 20.848C71.2826 20.734 71.2319 20.5567 71.2319 20.316V8.004C71.2319 7.76333 71.2826 7.59233 71.3839 7.491C71.4979 7.377 71.6752 7.32 71.9159 7.32H78.3189C79.9022 7.32 81.0739 7.63667 81.8339 8.27C82.6066 8.90333 82.9929 9.87867 82.9929 11.196V17.124C82.9929 18.4413 82.6066 19.4167 81.8339 20.05C81.0739 20.6833 79.9022 21 78.3189 21ZM75.5449 10.949V17.409H77.8059C78.1099 17.409 78.3316 17.333 78.4709 17.181C78.6229 17.029 78.6989 16.7947 78.6989 16.478V11.861C78.6989 11.5443 78.6229 11.3163 78.4709 11.177C78.3316 11.025 78.1099 10.949 77.8059 10.949H75.5449ZM98.7763 21H94.1403C92.5569 21 91.3789 20.6833 90.6063 20.05C89.8463 19.4167 89.4663 18.4413 89.4663 17.124V11.215C89.4663 9.89767 89.8463 8.92233 90.6063 8.289C91.3789 7.643 92.5569 7.32 94.1403 7.32H98.7763C99.0169 7.32 99.1879 7.377 99.2893 7.491C99.4033 7.59233 99.4603 7.76333 99.4603 8.004V10.303C99.4603 10.5437 99.4033 10.721 99.2893 10.835C99.1879 10.9363 99.0169 10.987 98.7763 10.987H94.9573C94.5646 10.987 94.2733 11.0693 94.0833 11.234C93.8933 11.386 93.7983 11.6203 93.7983 11.937V16.459C93.7983 16.7757 93.8933 17.01 94.0833 17.162C94.2733 17.3013 94.5646 17.371 94.9573 17.371H98.7763C99.0169 17.371 99.1879 17.428 99.2893 17.542C99.4033 17.6433 99.4603 17.8143 99.4603 18.055V20.316C99.4603 20.5567 99.4033 20.734 99.2893 20.848C99.1879 20.9493 99.0169 21 98.7763 21ZM111.961 21H102.29C102.049 21 101.872 20.9493 101.758 20.848C101.657 20.734 101.606 20.5567 101.606 20.316V8.004C101.606 7.76333 101.657 7.59233 101.758 7.491C101.872 7.377 102.049 7.32 102.29 7.32H105.235C105.476 7.32 105.647 7.377 105.748 7.491C105.862 7.59233 105.919 7.76333 105.919 8.004V17.409H108.522V14.331C108.522 14.0903 108.573 13.9193 108.674 13.818C108.788 13.704 108.965 13.647 109.206 13.647H111.961C112.202 13.647 112.373 13.704 112.474 13.818C112.588 13.9193 112.645 14.0903 112.645 14.331V20.316C112.645 20.5567 112.588 20.734 112.474 20.848C112.373 20.9493 112.202 21 111.961 21ZM126.407 17.409C126.407 17.9917 126.318 18.5237 126.141 19.005C125.976 19.4737 125.672 19.879 125.229 20.221C124.798 20.5503 124.197 20.81 123.424 21C122.664 21.19 121.695 21.285 120.517 21.285C119.339 21.285 118.364 21.19 117.591 21C116.818 20.81 116.21 20.5503 115.767 20.221C115.336 19.879 115.032 19.4737 114.855 19.005C114.69 18.5237 114.608 17.9917 114.608 17.409V10.93C114.608 10.3473 114.69 9.82167 114.855 9.353C115.032 8.87167 115.336 8.46 115.767 8.118C116.21 7.776 116.818 7.51 117.591 7.32C118.364 7.13 119.339 7.035 120.517 7.035C121.695 7.035 122.664 7.13 123.424 7.32C124.197 7.51 124.798 7.776 125.229 8.118C125.672 8.46 125.976 8.87167 126.141 9.353C126.318 9.82167 126.407 10.3473 126.407 10.93V17.409ZM118.921 16.725C118.921 16.9783 119.016 17.1937 119.206 17.371C119.396 17.5357 119.833 17.618 120.517 17.618C121.201 17.618 121.638 17.5357 121.828 17.371C122.018 17.1937 122.113 16.9783 122.113 16.725V11.614C122.113 11.3733 122.018 11.1707 121.828 11.006C121.638 10.8287 121.201 10.74 120.517 10.74C119.833 10.74 119.396 10.8287 119.206 11.006C119.016 11.1707 118.921 11.3733 118.921 11.614V16.725ZM140.473 17.409C140.473 17.9917 140.384 18.5237 140.207 19.005C140.042 19.4737 139.738 19.879 139.295 20.221C138.864 20.5503 138.269 20.81 137.509 21C136.749 21.19 135.78 21.285 134.602 21.285C133.424 21.285 132.455 21.19 131.695 21C130.935 20.81 130.333 20.5503 129.89 20.221C129.459 19.879 129.155 19.4737 128.978 19.005C128.813 18.5237 128.731 17.9917 128.731 17.409V8.004C128.731 7.76333 128.781 7.59233 128.883 7.491C128.997 7.377 129.174 7.32 129.415 7.32H132.398C132.638 7.32 132.809 7.377 132.911 7.491C133.025 7.59233 133.082 7.76333 133.082 8.004V16.668C133.082 16.9213 133.177 17.1367 133.367 17.314C133.557 17.4787 133.981 17.561 134.64 17.561C135.311 17.561 135.742 17.4787 135.932 17.314C136.122 17.1367 136.217 16.9213 136.217 16.668V8.004C136.217 7.76333 136.267 7.59233 136.369 7.491C136.483 7.377 136.66 7.32 136.901 7.32H139.789C140.029 7.32 140.2 7.377 140.302 7.491C140.416 7.59233 140.473 7.76333 140.473 8.004V17.409ZM150.088 21H143.685C143.445 21 143.267 20.9493 143.153 20.848C143.052 20.734 143.001 20.5567 143.001 20.316V8.004C143.001 7.76333 143.052 7.59233 143.153 7.491C143.267 7.377 143.445 7.32 143.685 7.32H150.088C151.672 7.32 152.843 7.63667 153.603 8.27C154.376 8.90333 154.762 9.87867 154.762 11.196V17.124C154.762 18.4413 154.376 19.4167 153.603 20.05C152.843 20.6833 151.672 21 150.088 21ZM147.314 10.949V17.409H149.575C149.879 17.409 150.101 17.333 150.24 17.181C150.392 17.029 150.468 16.7947 150.468 16.478V11.861C150.468 11.5443 150.392 11.3163 150.24 11.177C150.101 11.025 149.879 10.949 149.575 10.949H147.314Z" fill="#263238"/>
<path d="M15.4399 14.796L0.845477 20.3016C0.334338 20.4944 0 20.9553 0 21.4673V25.0062C0 25.5184 0.334553 25.9795 0.84612 26.1721L15.4463 31.671C16.6112 32.1096 17.9145 32.1096 19.0793 31.671L33.6795 26.1721C34.1911 25.9795 34.5257 25.5184 34.5257 25.0062V21.4673C34.5257 20.9553 34.1913 20.4944 33.6802 20.3016L19.0857 14.796C17.9171 14.3551 16.6088 14.3551 15.4399 14.796Z" fill="url(#paint0_linear_0_1)"/>
<path d="M34.4319 21.0167C34.2999 20.6983 34.034 20.435 33.6802 20.3016L19.0857 14.796C17.9168 14.3551 16.6088 14.3551 15.4399 14.796L0.845272 20.3016C0.491455 20.435 0.225824 20.6983 0.093544 21.0167C0.225824 21.3352 0.491667 21.5987 0.845912 21.732L15.0587 27.0848C16.472 27.617 18.0534 27.617 19.4667 27.0848L33.6795 21.732C34.0338 21.5987 34.2999 21.3354 34.4319 21.0167Z" fill="#263238"/>
<path d="M15.4399 7.56334L0.845477 13.0689C0.334338 13.2617 0 13.7227 0 14.2346V17.7736C0 18.2858 0.334553 18.7469 0.84612 18.9395L15.4463 24.4381C16.6112 24.8768 17.9145 24.8768 19.0793 24.4381L33.6795 18.9395C34.1911 18.7469 34.5257 18.2858 34.5257 17.7736V14.2346C34.5257 13.7227 34.1913 13.2617 33.6802 13.0689L19.0857 7.56334C17.9171 7.12248 16.6088 7.12248 15.4399 7.56334Z" fill="url(#paint1_linear_0_1)"/>
<path d="M34.4319 13.784C34.2999 13.4657 34.034 13.2024 33.6802 13.0689L19.0857 7.56334C17.9168 7.12248 16.6088 7.12248 15.4399 7.56334L0.845272 13.0689C0.491455 13.2024 0.225824 13.4657 0.093544 13.784C0.225824 14.1026 0.491667 14.3661 0.845912 14.4993L15.0587 19.8522C16.472 20.3844 18.0534 20.3844 19.4667 19.8522L33.6795 14.4993C34.0338 14.3661 34.2999 14.1026 34.4319 13.784Z" fill="#263238"/>
<path d="M15.4399 0.330645L0.845477 5.83623C0.334338 6.02905 0 6.48997 0 7.00192V10.5409C0 11.0531 0.334553 11.5142 0.84612 11.7068L15.4463 17.2054C16.6112 17.6441 17.9145 17.6441 19.0793 17.2054L33.6795 11.7068C34.1911 11.5142 34.5257 11.0531 34.5257 10.5409V7.00192C34.5257 6.48997 34.1913 6.02905 33.6802 5.83623L19.0857 0.330645C17.9171 -0.110215 16.6088 -0.110215 15.4399 0.330645Z" fill="url(#paint2_linear_0_1)"/>
<path d="M34.4319 6.55133C34.2999 6.233 34.034 5.96968 33.6802 5.83623L19.0857 0.330645C17.9168 -0.110215 16.6088 -0.110215 15.4399 0.330645L0.845272 5.83623C0.491455 5.96968 0.225824 6.233 0.093544 6.55133C0.225824 6.86986 0.491667 7.13339 0.845912 7.26664L15.0587 12.6195C16.472 13.1517 18.0534 13.1517 19.4667 12.6195L33.6795 7.26664C34.0338 7.13339 34.2999 6.86986 34.4319 6.55133Z" fill="#263238"/>
<path d="M2.86478 7.76229L10.1736 5.00513C16.014 2.80202 22.5507 2.80202 28.3911 5.00513L33.9711 7.11014C34.1787 6.96696 34.3399 6.77433 34.4323 6.55152C34.3003 6.23318 34.0344 5.96986 33.6806 5.83641L19.0862 0.330828C17.9173 -0.110032 16.6092 -0.110032 15.4404 0.330828L0.845699 5.83641C0.491883 5.96986 0.226251 6.23318 0.0939713 6.55152C0.226251 6.87005 0.492095 7.13357 0.846339 7.26682L2.57539 7.91798C2.66401 7.85682 2.75905 7.80221 2.86478 7.76229Z" fill="#37474F"/>
<path opacity="0.31" d="M34.5259 21.4673C34.5259 21.3096 34.491 21.1583 34.4321 21.0167C33.8422 24.5207 30.0181 27.072 27.1578 28.6285L33.6798 26.1722C34.1913 25.9795 34.5259 25.5184 34.5259 25.0063V21.4673Z" fill="#1565C0"/>
<path opacity="0.31" d="M34.5259 14.2336C34.5259 14.0759 34.491 13.9246 34.4321 13.783C33.8422 17.2869 30.0181 19.8385 27.1578 21.3948L33.6798 18.9385C34.1913 18.7459 34.5259 18.2848 34.5259 17.7726V14.2336Z" fill="#1565C0"/>
<path opacity="0.31" d="M34.5259 7.0047C34.5259 6.84702 34.491 6.6957 34.4321 6.55411C33.8422 10.0581 30.0181 12.6094 27.1578 14.1659L33.6798 11.7096C34.1913 11.517 34.5259 11.0558 34.5259 10.5437V7.0047Z" fill="#1565C0"/>
<path d="M18.5175 7.86777L24.0972 9.97257C24.9281 10.2861 25.4716 11.0354 25.4716 11.8675V28.7131C25.4716 30.1721 27.0707 31.162 28.5226 30.602L37.9487 26.9669" stroke="white" stroke-width="3.5933" stroke-miterlimit="10"/>
<path d="M19.7816 7.18641C20.4854 7.56352 20.4892 8.17378 19.7914 8.5499C19.0922 8.92701 17.9567 8.92701 17.2527 8.5499C16.5489 8.17298 16.545 7.56273 17.2443 7.18561C17.9423 6.80929 19.0778 6.80929 19.7816 7.18641Z" fill="white"/>
<path d="M39.4697 25.9641C40.1734 26.341 40.1773 26.9514 39.478 27.3284C38.7804 27.7045 37.6432 27.7055 36.9392 27.3284C36.237 26.9522 36.2333 26.3402 36.9309 25.9641C37.6302 25.587 38.7674 25.588 39.4697 25.9641Z" fill="white"/>
<defs>
<linearGradient id="paint0_linear_0_1" x1="8.5618e-05" y1="23.2327" x2="34.5258" y2="23.2327" gradientUnits="userSpaceOnUse">
<stop stop-color="#82B1FF"/>
<stop offset="1" stop-color="#1565C0"/>
</linearGradient>
<linearGradient id="paint1_linear_0_1" x1="8.5618e-05" y1="16" x2="34.5258" y2="16" gradientUnits="userSpaceOnUse">
<stop stop-color="#82B1FF"/>
<stop offset="1" stop-color="#1565C0"/>
</linearGradient>
<linearGradient id="paint2_linear_0_1" x1="8.5618e-05" y1="8.76731" x2="34.5258" y2="8.76731" gradientUnits="userSpaceOnUse">
<stop stop-color="#82B1FF"/>
<stop offset="1" stop-color="#1565C0"/>
</linearGradient>
</defs>
</svg>
